<?xml version="1.0" encoding="utf-8"?>
<?xml-stylesheet type="text/xsl" href="rss1.xsl"?>
<rss version="2.0" xmlns:atom="http://www.w3.org/2005/Atom" xmlns:content="http://purl.org/rss/1.0/modules/content/" xmlns:dc="http://purl.org/dc/elements/1.1/" xmlns:media="http://search.yahoo.com/mrss/">
<channel>
 <title>Getty</title>
 <link>http://www.gettyimg.com/</link>
 <atom:link href="http://www.gettyimg.com/" rel="self" type="application/rss+xml" />

 
                <item>
                <title><![CDATA[【Requests】Filled - [REQ AUD] Joeboy, Lakizo Entertainment - Empty My Pocket Lossless FLAC]]></title>
                <link><![CDATA[https://sharemania.us/threads/req-aud-joeboy-lakizo-entertainment-empty-my-pocket-lossless-flac.237990/]]></link>
                <description><![CDATA[<article>
<blockquote class="messageText SelectQuoteContainer ugc baseHtml">
<img src="https://www.google.com/url?sa=i&amp;url=https%3A%2F%2Fopen.spotify.com%2Ftrack%2F41ig2A2kJlWzIfxmEqzCpa&amp;psig=AOvVaw1gPJDkb5So1qHSh9PaMTUY&amp;ust=1708359897764000&amp;source=images&amp;cd=vfe&amp;opi=89978449&amp;ved=0CBEQjRxqFwoTCPiq1dqmtYQDFQAAAAAdAAAAABAD" class="bbCodeImage LbImage" alt="[​IMG]" data-url="https://www.google.com/url?sa=i&amp;url=https%3A%2F%2Fopen.spotify.com%2Ftrack%2F41ig2A2kJlWzIfxmEqzCpa&amp;psig=AOvVaw1gPJDkb5So1qHSh9PaMTUY&amp;ust=1708359897764000&amp;source=images&amp;cd=vfe&amp;opi=89978449&amp;ved=0CBEQjRxqFwoTCPiq1dqmtYQDFQAAAAAdAAAAABAD" style=""> <img src="https://ibb.co/F3crN1P" class="bbCodeImage LbImage" alt="[​IMG]" data-url="https://ibb.co/F3crN1P" style=""> <br>
<br>
IDK if its on FLAC, ALAC or WAV<br>
<br>
Please, Thank You boys!
<div class="messageTextEndMarker">&nbsp;</div>
</blockquote>
</article>]]></description>
                <author><![CDATA[Catto347]]></author>
                </item>

                
                <item>
                <title><![CDATA[【PRORES HD】Olivia Rodrigo - Can’t Catch Me Now (from The Hunger Games: The Ballad of Songbirds &amp; Snakes) [ProRes 1080]]]></title>
                <link><![CDATA[https://sharemania.us/threads/olivia-rodrigo-can%E2%80%99t-catch-me-now-from-the-hunger-games-the-ballad-of-songbirds-snakes-prores-1080.237991/]]></link>
                <description><![CDATA[<article>
<blockquote class="messageText SelectQuoteContainer ugc baseHtml">
<div style="text-align: center"><img src="https://i.imgur.com/AiJLChJ.gif" class="bbCodeImage LbImage" alt="[​IMG]" data-url="https://i.imgur.com/AiJLChJ.gif" style=""><br>
​</div>
<div class="ToggleTriggerAnchor bbCodeSpoilerContainer">
<button type="button" class="button bbCodeSpoilerButton ToggleTrigger Tooltip JsOnly" data-target="> .SpoilerTarget"><span>Spoiler: <span class="SpoilerTitle">ProRes</span></span></button>
<div class="SpoilerTarget bbCodeSpoilerText">
<div class="bbCodeBlock bbCodeCode">
<div class="type">Code:</div>
<pre>Format                                   : MPEG-4
Format profile                           : QuickTime
Codec ID                                 : qt   0000.02 (qt  )
File size                                : 4.40 GiB
Duration                                 : 3 min 38 s
Overall bit rate mode                    : Variable
Overall bit rate                         : 173 Mb/s
Encoded date                             : UTC 2023-11-11 02:35:14
Tagged date                              : UTC 2023-11-11 02:35:14
Writing application                      : Blackmagic Design DaVinci Resolve
Writing library                          : Apple QuickTime

Video
ID                                       : 1
Format                                   : ProRes
Format version                           : Version 0
Format profile                           : 422 HQ
Codec ID                                 : apch
Duration                                 : 3 min 38 s
Bit rate mode                            : Variable
Bit rate                                 : 171 Mb/s
Width                                    : 1 920 pixels
Height                                   : 1 080 pixels
Display aspect ratio                     : 16:9
Frame rate mode                          : Constant
Frame rate                               : 23.976 (24000/1001) FPS
Color space                              : YUV
Chroma subsampling                       : 4:2:2
Scan type                                : Progressive
Bits/(Pixel*Frame)                       : 3.433
Stream size                              : 4.34 GiB (99%)
Writing library                          : abm0
Encoded date                             : UTC 2023-11-11 02:35:14
Tagged date                              : UTC 2023-11-11 02:35:14
Color primaries                          : BT.709
Transfer characteristics                 : BT.709
Matrix coefficients                      : BT.709

Audio
ID                                       : 2
Format                                   : PCM
Format settings                          : Little / Signed
Codec ID                                 : lpcm
Duration                                 : 3 min 38 s
Bit rate mode                            : Constant
Bit rate                                 : 2 304 kb/s
Channel(s)                               : 2 channels
Channel layout                           : L R
Sampling rate                            : 48.0 kHz
Bit depth                                : 24 bits
Stream size                              : 60.0 MiB (1%)
Default                                  : Yes
Alternate group                          : 1
Encoded date                             : UTC 2023-11-11 02:35:14
Tagged date                              : UTC 2023-11-11 02:35:14

Other
ID                                       : 3
Type                                     : Time code
Format                                   : QuickTime TC
Duration                                 : 3 min 38 s
Frame rate                               : 23.976 (24000/1001) FPS
Time code of first frame                 : 01:00:00:00
Time code, striped                       : Yes
Language                                 : English
Default                                  : No
Encoded date                             : UTC 2023-11-11 02:35:14
Tagged date                              : UTC 2023-11-11 02:35:14</pre>
</div><div style="text-align: center">​</div></div>
</div><div style="text-align: center"><br>
<br>
<div class="bbCodeBlock bbCodeVfcHH HiddenContent">
<div class="attribution type">Hidden Content:</div>
<blockquote>You must reply before you can see the hidden data contained here.</blockquote>
</div></div>
<div class="messageTextEndMarker">&nbsp;</div>
</blockquote>
</article>]]></description>
                <author><![CDATA[fstambuk]]></author>
                </item>

                </channel></rss>